<?xml version="1.0" encoding="utf-8"?>
<!-- Generated by IcoMoon.io -->
<!DOCTYPE svg PUBLIC "-//W3C//DTD SVG 1.1//EN" "http://www.w3.org/Graphics/SVG/1.1/DTD/svg11.dtd">
<svg version="1.1" xmlns="http://www.w3.org/2000/svg" xmlns:xlink="http://www.w3.org/1999/xlink" width="512" height="512" viewBox="0 0 512 512">
<g id="icomoon-ignore">
</g>
<path d="M432.313 236.581c-32.877-91.72-102.555-174.075-176.313-236.581-73.758 62.506-143.435 144.861-176.313 236.581-20.332 56.718-22.341 118.281 6.292 172.7 32.923 62.57 99.316 102.719 170.021 102.719s137.098-40.149 170.020-102.72c28.635-54.419 26.625-115.981 6.293-172.699zM369.382 379.478c-21.901 41.626-66.406 68.522-113.382 68.522-27.56 0-54.262-9.268-76.056-25.326 6.621 0.862 13.316 1.326 20.056 1.326 58.713 0 114.334-33.607 141.701-85.621 22.439-42.646 20.489-86.924 11.941-122.169 7.279 14.075 13.453 28.099 18.424 41.966 11.303 31.531 20.012 78.17-2.684 121.302z"></path>
</svg>
